<svg width="25" height="25" viewBox="0 0 25 25" fill="none" xmlns="http://www.w3.org/2000/svg">
<path d="M5.67578 19.0915H8.64878V10.1457H5.67578V19.0915Z" fill="#6E5AEA"/>
<path d="M7.16233 8.92475H7.14317C6.14517 8.92475 5.5 8.23725 5.5 7.37892C5.5 6.50142 6.165 5.83325 7.182 5.83325C8.19917 5.83325 8.82533 6.50142 8.8445 7.37892C8.8445 8.23725 8.19917 8.92475 7.16233 8.92475Z" fill="#6E5AEA"/>
<path d="M19.3706 19.0916H16.3975V14.3056C16.3975 13.1032 15.9673 12.2826 14.8911 12.2826C14.0698 12.2826 13.5805 12.8361 13.3656 13.3704C13.2871 13.5611 13.2676 13.8286 13.2676 14.0957V19.0916H10.2943C10.2943 19.0916 10.3333 10.9851 10.2943 10.1457H13.2676V11.4129C13.6626 10.8034 14.3695 9.93591 15.9473 9.93591C17.9038 9.93591 19.3706 11.2144 19.3706 13.9622V19.0916Z" fill="#6E5AEA"/>
<path fill-rule="evenodd" clip-rule="evenodd" d="M25 12.5C25 5.59644 19.4036 0 12.5 0C5.59644 0 0 5.59644 0 12.5C0 19.4036 5.59644 25 12.5 25C19.4036 25 25 19.4036 25 12.5ZM2 12.5C2 6.70101 6.70101 2 12.5 2C18.299 2 23 6.70101 23 12.5C23 18.299 18.299 23 12.5 23C6.70101 23 2 18.299 2 12.5Z" fill="#6E5AEA"/>
</svg>
